<?xml version="1.0" encoding="iso-8859-1"?>
<!-- Generator: Adobe Illustrator 19.0.0, SVG Export Plug-In . SVG Version: 6.00 Build 0)  -->
<svg version="1.1" id="Layer_1" xmlns="http://www.w3.org/2000/svg" xmlns:xlink="http://www.w3.org/1999/xlink" x="0px" y="0px"
	 viewBox="0 0 512 512" style="enable-background:new 0 0 512 512;" xml:space="preserve">
<g>
	<rect x="207.051" y="345.342" style="fill:#FEE187;" width="97.886" height="136.257"/>
	<circle style="fill:#FEE187;" cx="255.994" cy="183.138" r="52.708"/>
	<rect x="379.601" y="255.423" style="fill:#FEE187;" width="117.344" height="229.249"/>
	<rect x="15.059" y="255.423" style="fill:#FEE187;" width="117.344" height="229.249"/>
</g>
<g>
	<path style="fill:#FFC61B;" d="M188.233,183.139c0,37.367,30.4,67.767,67.767,67.767s67.767-30.4,67.767-67.767
		s-30.4-67.767-67.767-67.767S188.233,145.773,188.233,183.139z M293.648,183.139c0,20.759-16.889,37.648-37.648,37.648
		c-20.759,0-37.648-16.889-37.648-37.648s16.889-37.648,37.648-37.648C276.759,145.491,293.648,162.38,293.648,183.139z"/>
	<path style="fill:#FFC61B;" d="M496.941,240.365H394.656v-16.817c0-8.317-6.744-15.059-15.059-15.059
		c-8.316,0-15.059,6.742-15.059,15.059v31.876v214.189h-44.535v-124.27c0-8.317-6.744-15.059-15.059-15.059h-97.886
		c-8.316,0-15.059,6.742-15.059,15.059v124.27h-44.535V255.424V134.746c0-0.092-0.012-0.181-0.014-0.273L256,46.697l169.785,137.292
		c2.789,2.254,6.134,3.351,9.46,3.351c4.39,0,8.743-1.913,11.719-5.592c5.229-6.466,4.226-15.949-2.241-21.178L265.469,15.619
		c-5.524-4.467-13.415-4.467-18.939,0L67.276,160.568c-6.466,5.23-7.469,14.711-2.241,21.178c5.232,6.468,14.711,7.471,21.179,2.241
		l31.129-25.172v81.548H15.059C6.744,240.363,0,247.106,0,255.423v229.249c0,8.317,6.744,15.059,15.059,15.059h481.881
		c8.316,0,15.059-6.742,15.059-15.059V255.423C512,247.109,505.258,240.365,496.941,240.365z M222.116,360.405h67.767v106.144
		h-67.767V360.405z M30.119,270.484h87.225v199.13H30.119V270.484z M481.881,469.614h-87.225v-199.13h87.225V469.614z"/>
</g>
<g>
</g>
<g>
</g>
<g>
</g>
<g>
</g>
<g>
</g>
<g>
</g>
<g>
</g>
<g>
</g>
<g>
</g>
<g>
</g>
<g>
</g>
<g>
</g>
<g>
</g>
<g>
</g>
<g>
</g>
</svg>
