<?xml version="1.0" encoding="iso-8859-1"?>
<!-- Generator: Adobe Illustrator 19.0.0, SVG Export Plug-In . SVG Version: 6.00 Build 0)  -->
<svg version="1.1" id="Layer_1" xmlns="http://www.w3.org/2000/svg" xmlns:xlink="http://www.w3.org/1999/xlink" x="0px" y="0px"
	 viewBox="0 0 512 512" style="enable-background:new 0 0 512 512;" xml:space="preserve">
<polygon style="fill:#FFFFFF;" points="58,397.144 58,114.856 256,9.072 454,114.856 454,397.144 256,502.936 "/>
<path style="fill:#E21B1B;" d="M256,18.144l190,101.512V392.36L256,493.872L66,392.352V119.648L256,18.144 M256,0L50,110.056
	v291.888L256,512l206-110.056V110.056L256,0L256,0z"/>
<circle cx="127.552" cy="199.456" r="11.008"/>
<path d="M139.84,214.872h-24.584c-8.664,0-15.72,7.056-15.72,15.72v30.832c0,3.16,2.56,5.72,5.72,5.72s5.72-2.56,5.72-5.72v-27.656
	h3.432v26.072c0,0.016,0,0.024,0,0.04v58.288c0,3.16,2.56,5.72,5.72,5.72s5.72-2.56,5.72-5.72v-46.896h3.432v46.896
	c0,3.16,2.56,5.72,5.72,5.72s5.72-2.56,5.72-5.72v-46.896v-11.4v-26.104h3.432v27.656c0,3.16,2.56,5.72,5.72,5.72
	s5.72-2.56,5.72-5.72v-30.832C155.568,221.928,148.512,214.872,139.84,214.872z"/>
<g>
	<circle style="fill:#C9C9C9;" cx="190.6" cy="199.456" r="11.008"/>
	<path style="fill:#C9C9C9;" d="M202.896,214.872h-24.584c-8.664,0-15.72,7.056-15.72,15.72v30.832c0,3.16,2.56,5.72,5.72,5.72
		s5.72-2.56,5.72-5.72v-27.656h3.432v26.072c0,0.016,0,0.024,0,0.04v58.288c0,3.16,2.56,5.72,5.72,5.72s5.72-2.56,5.72-5.72v-46.896
		h3.432v46.896c0,3.16,2.56,5.72,5.72,5.72s5.72-2.56,5.72-5.72v-46.896v-11.4v-26.104h3.432v27.656c0,3.16,2.56,5.72,5.72,5.72
		s5.72-2.56,5.72-5.72v-30.832C218.616,221.928,211.56,214.872,202.896,214.872z"/>
	<circle style="fill:#C9C9C9;" cx="253.696" cy="199.456" r="11.008"/>
	<path style="fill:#C9C9C9;" d="M265.992,214.872h-24.584c-8.664,0-15.72,7.056-15.72,15.72v30.832c0,3.16,2.56,5.72,5.72,5.72
		s5.72-2.56,5.72-5.72v-27.656h3.432v26.072c0,0.016,0,0.024,0,0.04v58.288c0,3.16,2.56,5.72,5.72,5.72s5.72-2.56,5.72-5.72v-46.896
		h3.432v46.896c0,3.16,2.56,5.72,5.72,5.72s5.72-2.56,5.72-5.72v-46.896v-11.4v-26.104h3.432v27.656c0,3.16,2.56,5.72,5.72,5.72
		s5.72-2.56,5.72-5.72v-30.832C281.712,221.928,274.656,214.872,265.992,214.872z"/>
	<circle style="fill:#C9C9C9;" cx="316.792" cy="199.456" r="11.008"/>
	<path style="fill:#C9C9C9;" d="M329.088,214.872h-24.584c-8.664,0-15.72,7.056-15.72,15.72v30.832c0,3.16,2.56,5.72,5.72,5.72
		s5.72-2.56,5.72-5.72v-27.656h3.432v26.072c0,0.016,0,0.024,0,0.04v58.288c0,3.16,2.56,5.72,5.72,5.72s5.72-2.56,5.72-5.72v-46.896
		h3.432v46.896c0,3.16,2.56,5.72,5.72,5.72s5.72-2.56,5.72-5.72v-46.896v-11.4v-26.104h3.432v27.656c0,3.16,2.56,5.72,5.72,5.72
		s5.72-2.56,5.72-5.72v-30.832C344.808,221.928,337.752,214.872,329.088,214.872z"/>
	<circle style="fill:#C9C9C9;" cx="379.888" cy="199.456" r="11.008"/>
	<path style="fill:#C9C9C9;" d="M392.184,214.872H367.6c-8.664,0-15.72,7.056-15.72,15.72v30.832c0,3.16,2.56,5.72,5.72,5.72
		s5.72-2.56,5.72-5.72v-27.656h3.432v26.072c0,0.016,0,0.024,0,0.04v58.288c0,3.16,2.56,5.72,5.72,5.72s5.72-2.56,5.72-5.72v-46.896
		h3.432v46.896c0,3.16,2.56,5.72,5.72,5.72s5.72-2.56,5.72-5.72v-46.896v-11.4v-26.104h3.432v27.656c0,3.16,2.56,5.72,5.72,5.72
		s5.72-2.56,5.72-5.72v-30.832C407.904,221.928,400.848,214.872,392.184,214.872z"/>
</g>
<g>
</g>
<g>
</g>
<g>
</g>
<g>
</g>
<g>
</g>
<g>
</g>
<g>
</g>
<g>
</g>
<g>
</g>
<g>
</g>
<g>
</g>
<g>
</g>
<g>
</g>
<g>
</g>
<g>
</g>
</svg>
