<?xml version="1.0" encoding="iso-8859-1"?>
<!-- Generator: Adobe Illustrator 19.0.0, SVG Export Plug-In . SVG Version: 6.00 Build 0)  -->
<svg version="1.1" id="Layer_1" xmlns="http://www.w3.org/2000/svg" xmlns:xlink="http://www.w3.org/1999/xlink" x="0px" y="0px"
	 viewBox="0 0 512 512" style="enable-background:new 0 0 512 512;" xml:space="preserve">
<circle style="fill:#B5F1F4;" cx="256" cy="256" r="256"/>
<path style="fill:#84DBFF;" d="M509.245,293.588L363.744,148.087L225.545,287.03l-75.035,79.086l143.122,143.122
	C404.906,492.844,492.87,404.868,509.245,293.588z"/>
<circle style="fill:#E6F3FF;" cx="256" cy="256" r="142.222"/>
<path style="fill:#CFDBE6;" d="M256,113.778c-0.193,0-0.381,0.014-0.574,0.014v284.415c0.193,0,0.381,0.016,0.574,0.016
	c78.546,0,142.222-63.676,142.222-142.222S334.546,113.778,256,113.778z"/>
<path style="fill:#324A5E;" d="M256,408.566c-84.125,0-152.566-68.441-152.566-152.566S171.875,103.434,256,103.434
	S408.566,171.875,408.566,256S340.125,408.566,256,408.566z M256,124.121c-72.72,0-131.879,59.159-131.879,131.879
	S183.28,387.879,256,387.879S387.879,328.72,387.879,256S328.72,124.121,256,124.121z"/>
<path style="fill:#2B3B4E;" d="M256,103.434c-0.191,0-0.383,0.007-0.574,0.007v20.694c0.193,0,0.381-0.014,0.574-0.014
	c72.72,0,131.879,59.159,131.879,131.879S328.72,387.879,256,387.879c-0.193,0-0.381-0.014-0.574-0.014v20.694
	c0.191,0,0.383,0.007,0.574,0.007c84.125,0,152.566-68.441,152.566-152.566S340.125,103.434,256,103.434z"/>
<path style="fill:#FC6F58;" d="M369.778,256c0-62.838-50.94-113.778-113.778-113.778V256H369.778z"/>
<g>
	<circle style="fill:#324A5E;" cx="256" cy="148.256" r="8.62"/>
	<circle style="fill:#324A5E;" cx="256" cy="363.744" r="8.62"/>
</g>
<g>
	<path style="fill:#2B3B4E;" d="M256,139.636c-0.197,0-0.381,0.045-0.574,0.059v17.124c0.193,0.012,0.378,0.057,0.574,0.057
		c4.76,0,8.62-3.86,8.62-8.62S260.76,139.636,256,139.636z"/>
	<path style="fill:#2B3B4E;" d="M256,355.125c-0.197,0-0.381,0.045-0.574,0.059v17.124c0.193,0.014,0.378,0.059,0.574,0.059
		c4.76,0,8.62-3.86,8.62-8.62S260.76,355.125,256,355.125z"/>
	<circle style="fill:#2B3B4E;" cx="363.744" cy="256" r="8.62"/>
</g>
<circle style="fill:#324A5E;" cx="148.256" cy="256" r="8.62"/>
<circle style="fill:#2B3B4E;" cx="332.179" cy="332.179" r="8.62"/>
<circle style="fill:#324A5E;" cx="179.821" cy="179.821" r="8.62"/>
<circle style="fill:#2B3B4E;" cx="332.179" cy="179.821" r="8.62"/>
<circle style="fill:#324A5E;" cx="179.821" cy="332.179" r="8.62"/>
<g>
</g>
<g>
</g>
<g>
</g>
<g>
</g>
<g>
</g>
<g>
</g>
<g>
</g>
<g>
</g>
<g>
</g>
<g>
</g>
<g>
</g>
<g>
</g>
<g>
</g>
<g>
</g>
<g>
</g>
</svg>
